<svg width="32" height="32" viewBox="0 0 32 32" fill="none" xmlns="http://www.w3.org/2000/svg">
<path d="M16.0298 5.33012C17.5998 3.88012 19.6898 3.00012 21.9998 3.00012C26.9698 3.00012 30.9998 7.03012 30.9998 12.0001C30.9998 20.0001 20.9998 29.0001 15.9998 31.0001C10.9998 29.0001 0.999756 20.0001 0.999756 12.0001C0.999756 7.03012 5.02976 3.00012 9.99976 3.00012C12.3098 3.00012 14.4098 3.88012 15.9998 5.30012L16.0298 5.33012Z" fill="#FFC44D"/>
<path d="M16 5.30463C14.407 3.87563 12.309 2.99963 10 2.99963C5.029 2.99963 1 7.02963 1 11.9996C1 19.9996 11 28.9996 16 30.9996C21 28.9996 31 19.9996 31 11.9996C31 7.02963 26.971 2.99963 22 2.99963C18.477 2.99963 15.479 5.05063 14 7.99963M27 11.9999C27 9.23793 24.762 6.99993 22 6.99993" stroke="black" stroke-width="2" stroke-linecap="round" stroke-linejoin="round"/>
</svg>
